<?xml version="1.0" encoding="utf-8"?>
<!-- Generator: Adobe Illustrator 19.0.0, SVG Export Plug-In . SVG Version: 6.00 Build 0)  -->
<svg version="1.1" id="图层_1" xmlns="http://www.w3.org/2000/svg" xmlns:xlink="http://www.w3.org/1999/xlink" x="0px" y="0px"
	 viewBox="-278 190.6 284 214.7" style="enable-background:new -278 190.6 284 214.7;" xml:space="preserve">
<style type="text/css">
	.st0{fill:#9BB7C9;}
	.st1{font-family:'OpenSans-Bold';}
	.st2{font-size:21px;}
	.st3{font-size:17.6553px;}
</style>
<g id="XMLID_455_">
	<g id="XMLID_203_">
		<path id="XMLID_211_" class="st0" d="M-131.1,346.9c-0.8,0-1.7-0.4-2.5-1.4l-6.7-6.7h-3.1c-1.9,0-3.5-1.6-3.5-3.5v-7
			c0-1.9,1.6-3.5,3.5-3.5h3.1l6.7-6.7c0.9-0.9,1.8-1.4,2.5-1.4c0.9,0,1.8,0.6,1.8,2.2v25.9C-129.3,346.4-130.4,346.9-131.1,346.9
			L-131.1,346.9z M-143.5,327c-0.6,0-1.1,0.5-1.1,1.1v7.1c0,0.6,0.5,1.1,1.1,1.1h3.5c0.4,0,0.6,0.1,0.9,0.4l7.1,7.1
			c0.1,0.1,0.3,0.3,0.4,0.4v-24.9c-0.1,0.1-0.3,0.2-0.4,0.4l-7.1,7.1c-0.3,0.3-0.5,0.4-0.9,0.4L-143.5,327L-143.5,327z"/>
		<path id="XMLID_210_" class="st0" d="M-125.3,339.8c-0.3,0-0.4-0.1-0.7-0.3c-0.5-0.4-0.6-1.1-0.3-1.7l0.4-0.6
			c1.2-1.7,2.3-3.1,2.3-5.5c0-2.5-1-3.8-2.1-5.3c-0.2-0.3-0.4-0.5-0.6-0.9c-0.4-0.5-0.3-1.2,0.3-1.7c0.5-0.4,1.2-0.3,1.7,0.3
			c0.2,0.3,0.4,0.5,0.6,0.8c1.3,1.7,2.6,3.4,2.6,6.7c0,3.2-1.5,5.2-2.7,6.9l-0.4,0.6C-124.5,339.6-124.8,339.8-125.3,339.8
			L-125.3,339.8z"/>
		<path id="XMLID_209_" class="st0" d="M-121.3,343.8c-0.3,0-0.5-0.1-0.8-0.3c-0.5-0.4-0.5-1.1-0.1-1.7c2.4-2.7,4.6-5.8,4.6-10.1
			c0-4.3-2.2-7.4-4.6-10.1c-0.4-0.5-0.4-1.2,0.1-1.7c0.5-0.4,1.2-0.4,1.7,0.1c2.5,2.9,5.2,6.6,5.2,11.6c0,5.1-2.6,8.8-5.2,11.6
			C-120.6,343.7-120.9,343.8-121.3,343.8L-121.3,343.8z"/>
	</g>
	<g id="XMLID_451_">
		<g id="XMLID_31_">
			<path id="XMLID_29_" class="st0" d="M-77.1,357.9c-0.6,0-1-0.5-1-1v-11.2c0-0.6,0.5-1,1-1s1,0.5,1,1v11.2
				C-76.1,357.5-76.5,357.9-77.1,357.9L-77.1,357.9z"/>
			<path id="XMLID_28_" class="st0" d="M-83.2,357.9c-0.6,0-1-0.5-1-1v-11.2c0-0.6,0.5-1,1-1s1,0.5,1,1v11.2
				C-82.2,357.5-82.7,357.9-83.2,357.9L-83.2,357.9z"/>
			<rect id="XMLID_26_" x="-91.3" y="341.1" class="st0" width="22.2" height="2.2"/>
			<g id="XMLID_27_">
				<path id="XMLID_12_" class="st0" d="M-76.6,341.2c0,0.6-0.4,1-1,1h-5.1c-0.6,0-1-0.4-1-1v-0.7c0-0.6,0.4-1,1-1h5.1
					c0.6,0,1,0.4,1,1V341.2z"/>
			</g>
			<path id="XMLID_7_" class="st0" d="M-73,364h-14.3c-1.7,0-3.1-1.4-3.1-3.1v-15.3c0-0.6,0.5-1,1-1c0.6,0,1,0.5,1,1v15.3
				c0,0.6,0.5,1,1,1h14.3c0.6,0,1-0.5,1-1v-15.3c0-0.6,0.5-1,1-1c0.6,0,1,0.5,1,1v15.3C-70,362.7-71.3,364-73,364L-73,364z"/>
		</g>
		<g id="XMLID_36_">
			<path id="XMLID_38_" class="st0" d="M-69.4,312.1c-2.1,0-7-1.9-12.8-9.6c-6.2-8.4-5.7-13.5-5.1-15c0.6-2.8,3.2-4.9,6.1-4.9h0.2
				c3.4,0.1,6.1,3,6.1,6.4c-0.1,1.4-0.6,2.8-1.6,3.9c-0.1,0.1-0.1,0.1-0.2,0.2c-0.3,0.3-0.6,0.6-0.9,0.8c-0.9,1.1-0.6,2.7,0.9,4.6
				s3,2.8,4.5,2.2c1.1-0.8,2.3-1.2,3.6-1.2c0,0,0.2,0,0.2,0c1.7,0.1,3.2,0.8,4.3,2c1.1,1.2,1.7,2.8,1.7,4.5
				c-0.1,3.4-2.8,6.1-6.2,6.1h-0.2C-68.8,312.1-69.1,312.1-69.4,312.1L-69.4,312.1L-69.4,312.1z M-69.2,308.9c0.2,0,0.3-0.1,0.5-0.1
				c0,0,0.1,0,0.2,0l0,0c1.7,0,3.1-1.3,3.1-3c0-0.8-0.2-1.6-0.9-2.2c-0.6-0.6-1.3-0.9-2.3-0.9c-0.9,0-1.5,0.4-1.9,0.7
				c-0.1,0.1-0.2,0.2-0.4,0.2c-0.8,0.3-1.6,0.5-2.4,0.5c-1.5,0-2.5-1.4-4.8-4.4c-3.5-4.6-2.9-6.9-2-8c0.1-0.1,0.2-0.2,0.3-0.2
				c0.2-0.2,0.4-0.3,0.6-0.5l0,0c0.4-0.4,0.8-1,0.8-2c0.1-1.7-1.3-3.2-3.1-3.2c-1.4,0-2.7,1-3.1,2.5c-0.3,0.9-1.6,6.1,3.9,13.4
				C-75,308.8-70.1,308.9-69.2,308.9L-69.2,308.9z"/>
		</g>
		<g id="XMLID_118_">
			<path id="XMLID_115_" class="st0" d="M-54.5,381.8c-0.1-0.2-0.1-0.4,0-0.6c0.2-0.4,0.7-0.6,1.1-0.4c2.7,1.3,4.7,3.5,5.7,6.3
				s0.8,5.7-0.5,8.4c-0.2,0.4-0.7,0.6-1.1,0.4c-0.4-0.2-0.6-0.7-0.4-1.1c1.1-2.2,1.2-4.7,0.4-7.1s-2.6-4.3-4.8-5.3
				C-54.3,382.2-54.4,382-54.5,381.8L-54.5,381.8z"/>
			<path id="XMLID_112_" class="st0" d="M-57.7,385.5c0-0.1,0-0.3,0-0.4c0.1-0.3,0.5-0.4,0.8-0.3c1.8,0.8,3.2,2.3,3.8,4.2
				c0.6,1.8,0.5,3.8-0.3,5.6c-0.1,0.3-0.5,0.4-0.8,0.3s-0.4-0.5-0.3-0.8c0.7-1.5,0.8-3.2,0.3-4.7c-0.6-1.6-1.7-2.9-3.2-3.6
				C-57.6,385.7-57.7,385.6-57.7,385.5L-57.7,385.5z"/>
			<path id="XMLID_114_" class="st0" d="M-50.5,377.4c-0.1-0.2-0.1-0.4,0-0.6c0.2-0.4,0.6-0.5,1-0.4c3.6,1.7,6.3,4.8,7.7,8.5
				c1.3,3.7,1.1,7.8-0.6,11.3c-0.2,0.4-0.6,0.5-1,0.4c-0.4-0.2-0.5-0.6-0.4-1c1.5-3.2,1.7-6.8,0.5-10.2s-3.6-6.1-6.9-7.7
				C-50.3,377.8-50.5,377.6-50.5,377.4L-50.5,377.4z"/>
		</g>
		<g id="XMLID_132_">
			<path id="XMLID_127_" class="st0" d="M-262.3,276.4l5.6-5.5c0.5-0.5,0.5-1.3,0-1.8s-1.3-0.5-1.8,0l-5.6,5.5l-5.5-5.5
				c-0.5-0.5-1.3-0.5-1.8,0s-0.5,1.3,0,1.8l5.5,5.5l-5.5,5.5c-0.5,0.5-0.5,1.3,0,1.8c0.3,0.3,0.6,0.4,0.9,0.4s0.7-0.1,0.9-0.4
				l5.5-5.5l5.6,5.6c0.3,0.3,0.6,0.4,0.9,0.4s0.7-0.1,0.9-0.4c0.5-0.5,0.5-1.3,0-1.8L-262.3,276.4L-262.3,276.4z"/>
		</g>
		<g id="XMLID_33_">
			<path id="XMLID_190_" class="st0" d="M-200.8,346.3c-0.4,0-0.8-0.4-0.8-0.8v-2.4c0-0.4,0.4-0.8,0.8-0.8s0.8,0.4,0.8,0.8v2.4
				C-200,345.9-200.4,346.3-200.8,346.3L-200.8,346.3z"/>
			<path id="XMLID_187_" class="st0" d="M-192.8,351.1h-16.1c-1.3,0-2.4-1.1-2.4-2.4v-8.9c0-1.3,1.1-2.4,2.4-2.4h16.1
				c1.3,0,2.4,1.1,2.4,2.4v8.9C-190.4,350-191.4,351.1-192.8,351.1L-192.8,351.1z M-208.9,339c-0.4,0-0.8,0.4-0.8,0.8v8.9
				c0,0.4,0.4,0.8,0.8,0.8h16.1c0.4,0,0.8-0.4,0.8-0.8v-8.9c0-0.4-0.4-0.8-0.8-0.8H-208.9L-208.9,339z"/>
			<path id="XMLID_81_" class="st0" d="M-195.2,339c-0.4,0-0.8-0.3-0.8-0.7v-2.8c0-2.3-2.6-4-4.9-4c-2.4,0-4.8,1.5-4.8,4v2.8
				c0,0.4-0.4,0.7-0.8,0.7s-0.8-0.3-0.8-0.7v-2.8c0-3.4,3.3-5.4,6.4-5.4c3.1,0,6.5,2.2,6.5,5.4v2.8
				C-194.4,338.7-194.8,339-195.2,339L-195.2,339z"/>
		</g>
		<g id="XMLID_214_">
			<path id="XMLID_216_" class="st0" d="M-31.7,280.9c0.3,0.3,0.8,0.3,1,0l4.7-4.7v12.9c0,0.4,0.3,0.7,0.7,0.7s0.7-0.3,0.7-0.7
				v-12.9l5.4,5.4c0.3,0.3,0.8,0.3,1,0c0.3-0.3,0.3-0.8,0-1l-6.6-6.6c-0.1-0.1-0.2-0.1-0.2-0.2c-0.1,0-0.2-0.1-0.3-0.1
				c-0.3,0-0.5,0.1-0.6,0.3l-5.8,5.8C-32,280.1-32,280.6-31.7,280.9L-31.7,280.9z"/>
			<path id="XMLID_215_" class="st0" d="M-33.4,270.7h16.2c0.4,0,0.7,0.3,0.7,0.7s-0.3,0.7-0.7,0.7h-16.2c-0.4,0-0.7-0.3-0.7-0.7
				S-33.8,270.7-33.4,270.7L-33.4,270.7z"/>
		</g>
		<g id="XMLID_217_">
			<path id="XMLID_218_" class="st0" d="M-161.6,214.7C-161.6,214.7-161.6,214.6-161.6,214.7v-17.1v-0.1v-0.1
				c-0.1-0.5-0.5-0.8-1-0.7l-13.5,2.2c-0.5,0.1-0.8,0.5-0.7,1v0.1c0,0.1-0.1,0.2-0.1,0.3v12c-0.6-0.3-1.2-0.4-1.9-0.4
				c-0.6,0-1.2,0.1-1.8,0.3c-1.1,0.4-2.1,1-2.7,1.9c-0.7,0.9-0.9,2-0.6,2.9c0.4,1.4,1.9,2.2,3.6,2.2c0.6,0,1.2-0.1,1.8-0.3
				c1.6-0.5,2.8-1.7,3.2-2.9c0.1-0.1,0.1-0.3,0.1-0.5v-0.1c0-0.2,0-0.5,0-0.7v-14.2l11.7-1.9v13.8c-0.6-0.3-1.2-0.4-2-0.4
				c-0.6,0-1.2,0.1-1.8,0.3c-1.1,0.4-2.1,1-2.7,1.9c-0.7,0.9-0.9,2-0.6,2.9c0.4,1.4,1.9,2.2,3.6,2.2c0.6,0,1.2-0.1,1.8-0.3
				C-162.8,218.2-161.4,216.4-161.6,214.7L-161.6,214.7z"/>
		</g>
		<g id="XMLID_219_">
			<path id="XMLID_220_" class="st0" d="M-109.7,257.7h-23.7c-1.4,0-2.4,0.9-2.4,2.4v14.2c0,1.2,0.9,2.4,2.4,2.4h23.7
				c1.2,0,2.4-0.9,2.4-2.4v-14.2C-107.4,258.6-108.3,257.7-109.7,257.7L-109.7,257.7z M-112.1,260.1l-9.5,5.7l-9.5-5.7H-112.1
				L-112.1,260.1z M-133.4,274.3v-12.8l11.4,6.9c0.2,0,0.5,0.2,0.7,0.2s0.5,0,0.7-0.2l10.9-6.9v12.8H-133.4L-133.4,274.3z"/>
		</g>
		<g id="XMLID_245_">
			<g id="XMLID_229_">
				<path id="XMLID_243_" class="st0" d="M-245.4,246.3c-0.1,0-0.2,0-0.3,0c-3.6-0.3-6-5.6-5.4-12.2c0.5-6.6,3.6-11.4,7.2-11.1
					c1.6,0.1,2.7,1.4,3.5,2.5c0.3,0.5,0.2,1.1-0.2,1.5c-0.5,0.3-1.1,0.2-1.5-0.3c-0.8-1.1-1.4-1.6-2-1.6c-2-0.1-4.5,3.6-5,9.2
					c-0.5,5.6,1.5,9.7,3.5,9.9c1.8,0.2,3.5-2,4.4-5.5c0.1-0.5,0.5-0.8,1-0.8h9.9c0.5,0,0.9,0.3,1,0.8c1,3.5,2.7,5.7,4.5,5.5
					c1-0.1,1.9-1.1,2.5-2.8c0.7-1.9,1-4.5,0.7-7.1c-0.3-2.7-1-5.1-2.1-6.9c-1-1.5-2.1-2.3-3-2.2c-0.6,0.1-1.3,0.6-2,1.6
					c-0.2,0.3-0.5,0.5-0.9,0.5h-10.8c-0.6,0-1.1-0.5-1.1-1.1s0.5-1.1,1.1-1.1h10.3c1-1.3,2-2,3.2-2.1c3.6-0.4,6.9,4.5,7.5,11
					c0.3,3,0,5.9-0.9,8.1c-0.9,2.5-2.5,4-4.3,4.1c-2.7,0.3-5.2-2.1-6.5-6.3h-8.4C-240.6,243.9-242.8,246.3-245.4,246.3L-245.4,246.3
					z"/>
				<path id="XMLID_242_" class="st0" d="M-241.6,231.4h-1.1v-1.1c0-0.6-0.5-1.1-1.1-1.1s-1,0.6-1,1.2v1.1h-1
					c-0.6,0-1.1,0.5-1.1,1.1s0.5,1.1,1.1,1.1h1v0.9c0,0.6,0.5,1.1,1.1,1.1s1.1-0.5,1.1-1.1v-1h1.1c0.6,0,1.1-0.5,1.1-1.1
					C-240.5,231.9-241,231.4-241.6,231.4L-241.6,231.4z"/>
				<path id="XMLID_239_" class="st0" d="M-225.1,232.5L-225.1,232.5z M-226.9,232.5c0,1,0.8,1.7,1.7,1.7s1.7-0.8,1.7-1.7
					c0-1-0.8-1.7-1.7-1.7S-226.9,231.5-226.9,232.5"/>
				<path id="XMLID_233_" class="st0" d="M-229.2,229.9L-229.2,229.9z M-231,229.9c0,1,0.8,1.7,1.7,1.7s1.7-0.8,1.7-1.7
					c0-1-0.8-1.7-1.7-1.7S-231,229-231,229.9"/>
				<path id="XMLID_247_" class="st0" d="M-229.2,235.1L-229.2,235.1z M-231,235.1c0,1,0.8,1.7,1.7,1.7s1.7-0.8,1.7-1.7
					c0-1-0.8-1.7-1.7-1.7S-231,234.2-231,235.1"/>
			</g>
			<path id="XMLID_244_" class="st0" d="M-241.3,224.5c0,0,0.3,0.6,1.1,0.6v2.1c0,0-1.4,0.2-1.8-0.2L-241.3,224.5z"/>
		</g>
		<path id="XMLID_139_" class="st0" d="M-100.6,211l-9.8-0.9l-4.8-8.6l-3.9,9l-9.6,1.9l7.4,6.5l-1.2,9.8l8.4-5l8.9,4.1l-2.2-9.6
			L-100.6,211z M-114.2,221.4l-6.2,3.7l0.9-7.2l-5.4-4.8l7.1-1.4l2.9-6.7l3.5,6.3l7.2,0.7l-4.9,5.3l1.6,7.1L-114.2,221.4z"/>
		<text id="XMLID_314_" transform="matrix(1 0 0 1 -230.6371 399.1666)" class="st0 st1 st2">%</text>
		<text id="XMLID_450_" transform="matrix(1 0 0 1 -17.1466 318.1236)" class="st0 st1 st3">@</text>
	</g>
</g>
</svg>
