<?xml version="1.0" encoding="utf-8"?>
<!-- Generator: Adobe Illustrator 19.0.0, SVG Export Plug-In . SVG Version: 6.00 Build 0)  -->
<svg version="1.1" id="图层_1" xmlns="http://www.w3.org/2000/svg" xmlns:xlink="http://www.w3.org/1999/xlink" x="0px" y="0px"
	 viewBox="-278 190.6 284 214.7" style="enable-background:new -278 190.6 284 214.7;" xml:space="preserve">
<style type="text/css">
	.st0{fill:#9BB7C9;}
	.st1{font-family:'OpenSans-Bold';}
	.st2{font-size:21px;}
	.st3{fill:#889EB0;}
</style>
<g id="XMLID_455_">
	<g id="XMLID_203_">
		<path id="XMLID_211_" class="st0" d="M-129.1,346.9c-0.9,0-1.9-0.5-2.9-1.6l-7.7-7.7h-3.5c-2.2,0-4-1.8-4-4v-8c0-2.2,1.8-4,4-4
			h3.5l7.7-7.7c1-1,2-1.6,2.9-1.6c1,0,2.1,0.7,2.1,2.5v29.6C-127,346.3-128.2,346.9-129.1,346.9L-129.1,346.9z M-143.2,324.2
			c-0.7,0-1.3,0.6-1.3,1.3v8.1c0,0.7,0.6,1.3,1.3,1.3h4c0.4,0,0.7,0.1,1,0.4l8.1,8.1c0.1,0.1,0.3,0.3,0.4,0.4v-28.4
			c-0.1,0.1-0.3,0.2-0.4,0.4l-8.1,8.1c-0.3,0.3-0.6,0.4-1,0.4h-4V324.2z"/>
		<path id="XMLID_210_" class="st0" d="M-122.4,338.8c-0.3,0-0.5-0.1-0.8-0.3c-0.6-0.4-0.7-1.3-0.3-1.9l0.5-0.7
			c1.4-1.9,2.6-3.5,2.6-6.3c0-2.9-1.1-4.3-2.4-6.1c-0.2-0.3-0.5-0.6-0.7-1c-0.4-0.6-0.3-1.4,0.3-1.9c0.6-0.4,1.4-0.3,1.9,0.3
			c0.2,0.3,0.4,0.6,0.7,0.9c1.5,1.9,3,3.9,3,7.7c0,3.7-1.7,5.9-3.1,7.9l-0.5,0.7C-121.5,338.6-121.9,338.8-122.4,338.8L-122.4,338.8
			z"/>
		<path id="XMLID_209_" class="st0" d="M-117.8,343.4c-0.3,0-0.6-0.1-0.9-0.3c-0.6-0.5-0.6-1.3-0.1-1.9c2.7-3.1,5.2-6.6,5.2-11.5
			s-2.5-8.4-5.2-11.5c-0.5-0.6-0.4-1.4,0.1-1.9c0.6-0.5,1.4-0.4,1.9,0.1c2.9,3.3,5.9,7.5,5.9,13.3c0,5.8-3,10-5.9,13.3
			C-117,343.2-117.4,343.4-117.8,343.4L-117.8,343.4z"/>
	</g>
	<g id="XMLID_451_">
		<g id="XMLID_31_">
			<path id="XMLID_29_" class="st0" d="M-77.3,357.9c-0.6,0-1-0.5-1-1v-11.2c0-0.6,0.5-1,1-1s1,0.5,1,1v11.2
				C-76.3,357.5-76.7,357.9-77.3,357.9L-77.3,357.9z"/>
			<path id="XMLID_28_" class="st0" d="M-83.4,357.9c-0.6,0-1-0.5-1-1v-11.2c0-0.6,0.5-1,1-1s1,0.5,1,1v11.2
				C-82.4,357.5-82.9,357.9-83.4,357.9L-83.4,357.9z"/>
			<rect id="XMLID_26_" x="-91.5" y="341.1" class="st0" width="22.2" height="2.2"/>
			<g id="XMLID_27_">
				<path id="XMLID_12_" class="st0" d="M-76.8,341.2c0,0.6-0.4,1-1,1h-5.1c-0.6,0-1-0.4-1-1v-0.7c0-0.6,0.4-1,1-1h5.1
					c0.6,0,1,0.4,1,1V341.2z"/>
			</g>
			<path id="XMLID_7_" class="st0" d="M-73.2,364h-14.3c-1.7,0-3.1-1.4-3.1-3.1v-15.3c0-0.6,0.5-1,1-1c0.6,0,1,0.5,1,1v15.3
				c0,0.6,0.5,1,1,1h14.3c0.6,0,1-0.5,1-1v-15.3c0-0.6,0.5-1,1-1c0.6,0,1,0.5,1,1v15.3C-70.2,362.7-71.5,364-73.2,364L-73.2,364z"/>
		</g>
		<g id="XMLID_36_">
			<path id="XMLID_38_" class="st0" d="M-64.7,320c-2.7,0-8.9-2.4-16.2-12.2c-7.9-10.6-7.2-17.1-6.5-19.1c0.8-3.6,4-6.2,7.7-6.2h0.2
				c4.3,0.1,7.8,3.8,7.7,8.1c-0.1,1.8-0.8,3.6-2,5c-0.1,0.1-0.1,0.1-0.2,0.2c-0.4,0.4-0.8,0.7-1.1,1c-1.1,1.4-0.7,3.4,1.2,5.9
				s3.8,3.5,5.7,2.8c1.4-1,2.9-1.5,4.6-1.5c0,0,0.2,0,0.3,0c2.1,0.1,4.1,1,5.5,2.5s2.2,3.6,2.1,5.7c-0.1,4.3-3.6,7.7-7.9,7.7h-0.2
				C-64,320.1-64.3,320.1-64.7,320L-64.7,320L-64.7,320z M-64.4,316c0.2,0,0.4-0.1,0.6-0.1c0,0,0.1,0,0.2,0l0,0
				c2.1,0,3.9-1.7,3.9-3.8c0-1-0.3-2-1.1-2.8c-0.7-0.8-1.7-1.2-2.9-1.2c-1.1,0-1.9,0.5-2.4,0.9c-0.1,0.1-0.3,0.2-0.5,0.3
				c-1,0.4-2,0.6-3,0.6c-1.9,0-3.2-1.8-6.1-5.6c-4.4-5.9-3.7-8.8-2.5-10.2c0.1-0.1,0.3-0.2,0.4-0.3c0.2-0.2,0.5-0.4,0.7-0.6l0,0
				c0.5-0.5,1-1.3,1-2.5c0.1-2.2-1.6-4-3.9-4c-1.8,0-3.4,1.3-3.9,3.2c-0.4,1.2-2,7.7,5,17C-71.8,315.9-65.6,316-64.4,316L-64.4,316z
				"/>
		</g>
		<g id="XMLID_118_">
			<path id="XMLID_115_" class="st0" d="M-54.7,381.8c-0.1-0.2-0.1-0.4,0-0.6c0.2-0.4,0.7-0.6,1.1-0.4c2.7,1.3,4.7,3.5,5.7,6.3
				c1,2.8,0.8,5.7-0.5,8.4c-0.2,0.4-0.7,0.6-1.1,0.4c-0.4-0.2-0.6-0.7-0.4-1.1c1.1-2.2,1.2-4.7,0.4-7.1s-2.6-4.3-4.8-5.3
				C-54.5,382.2-54.6,382-54.7,381.8L-54.7,381.8z"/>
			<path id="XMLID_112_" class="st0" d="M-57.9,385.5c0-0.1,0-0.3,0-0.4c0.1-0.3,0.5-0.4,0.8-0.3c1.8,0.8,3.2,2.3,3.8,4.2
				c0.6,1.8,0.5,3.8-0.3,5.6c-0.1,0.3-0.5,0.4-0.8,0.3s-0.4-0.5-0.3-0.8c0.7-1.5,0.8-3.2,0.3-4.7c-0.6-1.6-1.7-2.9-3.2-3.6
				C-57.8,385.7-57.9,385.6-57.9,385.5L-57.9,385.5z"/>
			<path id="XMLID_114_" class="st0" d="M-50.7,377.4c-0.1-0.2-0.1-0.4,0-0.6c0.2-0.4,0.6-0.5,1-0.4c3.6,1.7,6.3,4.8,7.7,8.5
				c1.3,3.7,1.1,7.8-0.6,11.3c-0.2,0.4-0.6,0.5-1,0.4c-0.4-0.2-0.5-0.6-0.4-1c1.5-3.2,1.7-6.8,0.5-10.2s-3.6-6.1-6.9-7.7
				C-50.5,377.8-50.7,377.6-50.7,377.4L-50.7,377.4z"/>
		</g>
		<g id="XMLID_132_">
			<path id="XMLID_127_" class="st0" d="M-262.5,276.4l5.6-5.5c0.5-0.5,0.5-1.3,0-1.8s-1.3-0.5-1.8,0l-5.6,5.5l-5.5-5.5
				c-0.5-0.5-1.3-0.5-1.8,0s-0.5,1.3,0,1.8l5.5,5.5l-5.5,5.5c-0.5,0.5-0.5,1.3,0,1.8c0.3,0.3,0.6,0.4,0.9,0.4c0.3,0,0.7-0.1,0.9-0.4
				l5.5-5.5l5.6,5.6c0.3,0.3,0.6,0.4,0.9,0.4c0.3,0,0.7-0.1,0.9-0.4c0.5-0.5,0.5-1.3,0-1.8L-262.5,276.4L-262.5,276.4z"/>
		</g>
		<g id="XMLID_33_">
			<path id="XMLID_190_" class="st0" d="M-201,346.3c-0.4,0-0.8-0.4-0.8-0.8v-2.4c0-0.4,0.4-0.8,0.8-0.8s0.8,0.4,0.8,0.8v2.4
				C-200.2,345.9-200.6,346.3-201,346.3L-201,346.3z"/>
			<path id="XMLID_187_" class="st0" d="M-193,351.1h-16.1c-1.3,0-2.4-1.1-2.4-2.4v-8.9c0-1.3,1.1-2.4,2.4-2.4h16.1
				c1.3,0,2.4,1.1,2.4,2.4v8.9C-190.6,350-191.6,351.1-193,351.1L-193,351.1z M-209.1,339c-0.4,0-0.8,0.4-0.8,0.8v8.9
				c0,0.4,0.4,0.8,0.8,0.8h16.1c0.4,0,0.8-0.4,0.8-0.8v-8.9c0-0.4-0.4-0.8-0.8-0.8H-209.1L-209.1,339z"/>
			<path id="XMLID_81_" class="st0" d="M-195.4,339c-0.4,0-0.8-0.3-0.8-0.7v-2.8c0-2.3-2.6-4-4.9-4c-2.4,0-4.8,1.5-4.8,4v2.8
				c0,0.4-0.4,0.7-0.8,0.7s-0.8-0.3-0.8-0.7v-2.8c0-3.4,3.3-5.4,6.4-5.4c3.1,0,6.5,2.2,6.5,5.4v2.8C-194.6,338.7-195,339-195.4,339
				L-195.4,339z"/>
		</g>
		<g id="XMLID_214_">
			<path id="XMLID_216_" class="st0" d="M-31.9,280.9c0.3,0.3,0.8,0.3,1,0l4.7-4.7v12.9c0,0.4,0.3,0.7,0.7,0.7s0.7-0.3,0.7-0.7
				v-12.9l5.4,5.4c0.3,0.3,0.8,0.3,1,0c0.3-0.3,0.3-0.8,0-1L-25,274c-0.1-0.1-0.2-0.1-0.2-0.2c-0.1,0-0.2-0.1-0.3-0.1
				c-0.3,0-0.5,0.1-0.6,0.3l-5.8,5.8C-32.2,280.1-32.2,280.6-31.9,280.9L-31.9,280.9z"/>
			<path id="XMLID_215_" class="st0" d="M-33.6,270.7h16.2c0.4,0,0.7,0.3,0.7,0.7s-0.3,0.7-0.7,0.7h-16.2c-0.4,0-0.7-0.3-0.7-0.7
				C-34.3,271-34,270.7-33.6,270.7L-33.6,270.7z"/>
		</g>
		<g id="XMLID_217_">
			<path id="XMLID_218_" class="st0" d="M-161.8,214.7C-161.8,214.7-161.8,214.6-161.8,214.7v-17.1v-0.1v-0.1
				c-0.1-0.5-0.5-0.8-1-0.7l-13.5,2.2c-0.5,0.1-0.8,0.5-0.7,1v0.1c0,0.1-0.1,0.2-0.1,0.3v12c-0.6-0.3-1.2-0.4-1.9-0.4
				c-0.6,0-1.2,0.1-1.8,0.3c-1.1,0.4-2.1,1-2.7,1.9c-0.7,0.9-0.9,2-0.6,2.9c0.4,1.4,1.9,2.2,3.6,2.2c0.6,0,1.2-0.1,1.8-0.3
				c1.6-0.5,2.8-1.7,3.2-2.9c0.1-0.1,0.1-0.3,0.1-0.5v-0.1c0-0.2,0-0.5,0-0.7v-14.2l11.7-1.9v13.8c-0.6-0.3-1.2-0.4-2-0.4
				c-0.6,0-1.2,0.1-1.8,0.3c-1.1,0.4-2.1,1-2.7,1.9c-0.7,0.9-0.9,2-0.6,2.9c0.4,1.4,1.9,2.2,3.6,2.2c0.6,0,1.2-0.1,1.8-0.3
				C-163,218.2-161.6,216.4-161.8,214.7L-161.8,214.7z"/>
		</g>
		<g id="XMLID_219_">
			<path id="XMLID_220_" class="st0" d="M-109.9,257.7h-23.7c-1.4,0-2.4,0.9-2.4,2.4v14.2c0,1.2,0.9,2.4,2.4,2.4h23.7
				c1.2,0,2.4-0.9,2.4-2.4v-14.2C-107.6,258.6-108.5,257.7-109.9,257.7L-109.9,257.7z M-112.3,260.1l-9.5,5.7l-9.5-5.7H-112.3
				L-112.3,260.1z M-133.6,274.3v-12.8l11.4,6.9c0.2,0,0.5,0.2,0.7,0.2s0.5,0,0.7-0.2l10.9-6.9v12.8H-133.6L-133.6,274.3z"/>
		</g>
		<g id="XMLID_245_">
			<g id="XMLID_229_">
				<path id="XMLID_243_" class="st0" d="M-245.6,246.3c-0.1,0-0.2,0-0.3,0c-3.6-0.3-6-5.6-5.4-12.2c0.5-6.6,3.6-11.4,7.2-11.1
					c1.6,0.1,2.7,1.4,3.5,2.5c0.3,0.5,0.2,1.1-0.2,1.5c-0.5,0.3-1.1,0.2-1.5-0.3c-0.8-1.1-1.4-1.6-2-1.6c-2-0.1-4.5,3.6-5,9.2
					c-0.5,5.6,1.5,9.7,3.5,9.9c1.8,0.2,3.5-2,4.4-5.5c0.1-0.5,0.5-0.8,1-0.8h9.9c0.5,0,0.9,0.3,1,0.8c1,3.5,2.7,5.7,4.5,5.5
					c1-0.1,1.9-1.1,2.5-2.8c0.7-1.9,1-4.5,0.7-7.1c-0.3-2.7-1-5.1-2.1-6.9c-1-1.5-2.1-2.3-3-2.2c-0.6,0.1-1.3,0.6-2,1.6
					c-0.2,0.3-0.5,0.5-0.9,0.5h-10.8c-0.6,0-1.1-0.5-1.1-1.1c0-0.6,0.5-1.1,1.1-1.1h10.3c1-1.3,2-2,3.2-2.1c3.6-0.4,6.9,4.5,7.5,11
					c0.3,3,0,5.9-0.9,8.1c-0.9,2.5-2.5,4-4.3,4.1c-2.7,0.3-5.2-2.1-6.5-6.3h-8.4C-240.8,243.9-243,246.3-245.6,246.3L-245.6,246.3z"
					/>
				<path id="XMLID_242_" class="st0" d="M-241.8,231.4h-1.1v-1.1c0-0.6-0.5-1.1-1.1-1.1c-0.6,0-1,0.6-1,1.2v1.1h-1
					c-0.6,0-1.1,0.5-1.1,1.1c0,0.6,0.5,1.1,1.1,1.1h1v0.9c0,0.6,0.5,1.1,1.1,1.1c0.6,0,1.1-0.5,1.1-1.1v-1h1.1
					c0.6,0,1.1-0.5,1.1-1.1C-240.7,231.9-241.2,231.4-241.8,231.4L-241.8,231.4z"/>
				<path id="XMLID_239_" class="st0" d="M-225.3,232.5L-225.3,232.5z M-227.1,232.5c0,1,0.8,1.7,1.7,1.7c0.9,0,1.7-0.8,1.7-1.7
					c0-1-0.8-1.7-1.7-1.7C-226.3,230.8-227.1,231.5-227.1,232.5"/>
				<path id="XMLID_233_" class="st0" d="M-229.4,229.9L-229.4,229.9z M-231.2,229.9c0,1,0.8,1.7,1.7,1.7s1.7-0.8,1.7-1.7
					c0-1-0.8-1.7-1.7-1.7S-231.2,229-231.2,229.9"/>
				<path id="XMLID_247_" class="st0" d="M-229.4,235.1L-229.4,235.1z M-231.2,235.1c0,1,0.8,1.7,1.7,1.7s1.7-0.8,1.7-1.7
					c0-1-0.8-1.7-1.7-1.7S-231.2,234.2-231.2,235.1"/>
			</g>
			<path id="XMLID_244_" class="st0" d="M-241.5,224.5c0,0,0.3,0.6,1.1,0.6v2.1c0,0-1.4,0.2-1.8-0.2L-241.5,224.5z"/>
		</g>
		<path id="XMLID_139_" class="st0" d="M-100.8,211l-9.8-0.9l-4.8-8.6l-3.9,9l-9.6,1.9l7.4,6.5l-1.2,9.8l8.4-5l8.9,4.1l-2.2-9.6
			L-100.8,211z M-114.4,221.4l-6.2,3.7l0.9-7.2l-5.4-4.8l7.1-1.4l2.9-6.7l3.5,6.3l7.2,0.7l-4.9,5.3l1.6,7.1L-114.4,221.4z"/>
		<text id="XMLID_314_" transform="matrix(1 0 0 1 -230.8371 399.1535)" class="st0 st1 st2">%</text>
		<text id="XMLID_450_" transform="matrix(1 0 0 1 -17.3465 320.9765)" class="st0 st1 st2">@</text>
	</g>
</g>
<rect x="-383" y="107.9" class="st3" width="81" height="82.7"/>
</svg>
