<?xml version="1.0" encoding="utf-8"?>
<!-- Generator: Adobe Illustrator 19.0.0, SVG Export Plug-In . SVG Version: 6.00 Build 0)  -->
<svg version="1.1" id="图层_1" xmlns="http://www.w3.org/2000/svg" xmlns:xlink="http://www.w3.org/1999/xlink" x="0px" y="0px"
	 viewBox="-230 164.3 381 267" style="enable-background:new -230 164.3 381 267;" xml:space="preserve">
<style type="text/css">
	.st0{fill:#DAF1F7;}
	.st1{fill:none;stroke:#DAF1F7;stroke-width:2;stroke-miterlimit:10;}
</style>
<g>
	<g id="XMLID_224_">
		<path id="XMLID_226_" class="st0" d="M-52.8,381.6c0-1.4-1.1-2.5-2.5-2.5h-4.8c0,0,0,0-0.1,0s-0.2,0-0.3,0.1l0,0
			c-0.1,0-0.2,0.1-0.2,0.1c-0.4,0.4-0.7,1.3-0.9,2.3c0,0.1-0.1,0.3-0.1,0.4c0,0.2-0.1,0.4-0.7,0.4c-0.1,0-0.3,0-0.4,0h-10.9
			c-1.4,0-2.5,1.1-2.5,2.6l0.8,10.8c0,1.4,0.1,2.5,1.5,2.5h18.7c1.4,0,1.5-1.1,1.5-2.4L-52.8,381.6z M-55.4,395.8
			c0,0.5-0.4,0.8-0.8,0.8h-16.7c-0.5,0-0.8-0.4-0.8-0.9l-0.8-10.8c0-0.5,0.4-0.8,0.8-0.8h10.9c0.1,0,0.3,0,0.4,0
			c1.2,0,2.1-0.6,2.3-1.7c0-0.1,0.1-0.2,0.1-0.4c0.1-0.3,0.2-0.9,0.3-1.2h4.4c0.5,0,0.8,0.4,0.8,0.8v0.1l0,0L-55.4,395.8"/>
		<path id="XMLID_225_" class="st0" d="M-74.6,380.8h10.9c0.5,0,0.8-0.4,0.8-0.8c0-0.5-0.4-0.8-0.8-0.8h-10.9
			c-0.5,0-0.8,0.4-0.8,0.8S-75,380.8-74.6,380.8L-74.6,380.8z"/>
	</g>
	<g id="XMLID_191_">
		<path id="XMLID_200_" class="st0" d="M-104.6,261.7h15.1l-0.6,10.3h-14.5v-2.6V261.7z M-87.3,259.6c-0.2-0.3-0.4-0.5-0.8-0.5H-105
			l-1.6-2.7c-0.2-0.3-0.6-0.5-1-0.5h-2c-0.6,0-1,0.5-1,1.1s0.4,1.3,1,1.3h1.4l1.6,2.2v7.6v5.3c0,0.8,0.4,1.3,1,1.3h15.5h1.7l0.4-6.6
			L-87.3,259.6 M-90.2,269.6L-90.2,269.6"/>
		<path id="XMLID_197_" class="st0" d="M-103.4,277.8L-103.4,277.8z M-105.6,277.8c0,1.2,1,2.1,2.1,2.1c1.2,0,2.1-1,2.1-2.1
			c0-1.2-1-2.1-2.1-2.1C-104.6,275.7-105.6,276.6-105.6,277.8"/>
		<path id="XMLID_192_" class="st0" d="M-91.4,277.8L-91.4,277.8z M-93.6,277.8c0,1.2,1,2.1,2.1,2.1c1.2,0,2.1-1,2.1-2.1
			c0-1.2-1-2.1-2.1-2.1C-92.6,275.7-93.6,276.6-93.6,277.8"/>
		<rect id="XMLID_208_" x="-102.2" y="260.3" class="st0" width="1.9" height="13.3"/>
		<rect id="XMLID_206_" x="-98.3" y="260.3" class="st0" width="1.9" height="13.3"/>
		<rect id="XMLID_207_" x="-94.3" y="260.3" class="st0" width="1.9" height="13.3"/>
	</g>
	<g id="XMLID_137_">
		<path id="XMLID_131_" class="st0" d="M115.8,348.3c-0.6-0.6-1.6-0.6-2.2,0l-11.5,11.6l-5.1-5.2c-0.6-0.6-1.6-0.6-2.2,0
			s-0.6,1.6,0,2.2l6.2,6.4l0,0l0,0c0.1,0.1,0.2,0.2,0.3,0.2s0.1,0.1,0.2,0.1c0.2,0.1,0.4,0.1,0.6,0.1s0.4,0,0.6-0.1
			c0.1,0,0.1-0.1,0.2-0.1c0.1-0.1,0.2-0.1,0.3-0.2l0,0l0,0l12.6-12.8C116.4,349.9,116.4,348.9,115.8,348.3L115.8,348.3z"/>
	</g>
	<g id="XMLID_86_">
		<path id="XMLID_90_" class="st0" d="M28.5,225.2c-0.4,0.5-0.3,1.3,0.2,1.7c0.2,0.2,0.5,0.3,0.7,0.3c0.4,0,0.7-0.2,1-0.5l5.3-6.9
			c1.4,0.8,3.1,1.3,4.8,1.3c5.4,0,9.8-4.4,9.8-9.8c0-5.4-4.4-9.8-9.8-9.8s-9.8,4.4-9.8,9.8c0,2.8,1.2,5.3,3,7.1L28.5,225.2
			L28.5,225.2z M47.9,211.2c0,4.1-3.3,7.4-7.4,7.4s-7.4-3.3-7.4-7.4c0-4.1,3.3-7.4,7.4-7.4S47.9,207.1,47.9,211.2L47.9,211.2z"/>
	</g>
	<g id="XMLID_446_">
		<path id="XMLID_236_" class="st0" d="M-182.9,317.9c-4.5,0-8.1,3.6-8.1,8.1s3.6,8.1,8.1,8.1s8.1-3.6,8.1-8.1
			C-174.8,321.5-178.4,317.9-182.9,317.9z M-182.9,331.5c-3,0-5.5-2.5-5.5-5.5s2.5-5.5,5.5-5.5s5.5,2.5,5.5,5.5
			C-177.4,329.1-179.8,331.5-182.9,331.5z"/>
		<path id="XMLID_238_" class="st0" d="M-169.1,346.3c0-7.8-6.3-14.2-14.2-14.2s-14.1,6.3-14.1,14.2h2c0-6.7,5.4-12.1,12.1-12.1
			c6.7,0,12.1,5.4,12.1,12.1"/>
	</g>
</g>
<g>
	<circle id="XMLID_110_" class="st1" cx="-64.5" cy="388.7" r="32.9"/>
	<g id="XMLID_452_">
		<circle id="XMLID_453_" class="st1" cx="-99" cy="268.1" r="32.9"/>
	</g>
	<g id="XMLID_130_">
		<circle id="XMLID_133_" class="st1" cx="104.3" cy="355.8" r="32.9"/>
	</g>
	<g id="XMLID_458_">
		<circle id="XMLID_459_" class="st1" cx="39.3" cy="212.8" r="32.9"/>
	</g>
	<g id="XMLID_454_">
		<circle id="XMLID_456_" class="st1" cx="-182.9" cy="332.3" r="32.9"/>
	</g>
</g>
</svg>
