<?xml version="1.0" encoding="utf-8"?>
<!-- Generator: Adobe Illustrator 19.0.0, SVG Export Plug-In . SVG Version: 6.00 Build 0)  -->
<svg version="1.1" id="图层_1" xmlns="http://www.w3.org/2000/svg" xmlns:xlink="http://www.w3.org/1999/xlink" x="0px" y="0px"
	 viewBox="-230 164.3 381 267" style="enable-background:new -230 164.3 381 267;" xml:space="preserve">
<style type="text/css">
	.st0{opacity:0.21;}
	.st1{fill:#FFFFFF;}
	.st2{fill:#9BB7C9;}
</style>
<g>
	<g id="XMLID_19_" class="st0">
		<circle id="XMLID_20_" class="st1" cx="104.3" cy="352.9" r="29.4"/>
	</g>
</g>
<g>
	<g id="XMLID_15_" class="st0">
		<circle id="XMLID_16_" class="st1" cx="-64.8" cy="385.2" r="29.4"/>
	</g>
</g>
<g>
	<g id="XMLID_11_" class="st0">
		<circle id="XMLID_12_" class="st1" cx="-182.8" cy="329.1" r="29.4"/>
	</g>
</g>
<g>
	<g id="XMLID_7_" class="st0">
		<circle id="XMLID_8_" class="st1" cx="-99.3" cy="264.7" r="29.4"/>
	</g>
</g>
<g>
	<g id="XMLID_224_">
		<path id="XMLID_226_" class="st2" d="M-53,378.6c0-1.4-1.1-2.5-2.5-2.5h-4.8c0,0,0,0-0.1,0s-0.2,0-0.3,0.1l0,0
			c-0.1,0-0.2,0.1-0.2,0.1c-0.4,0.4-0.7,1.3-0.9,2.3c0,0.1-0.1,0.3-0.1,0.4c0,0.2-0.1,0.4-0.7,0.4c-0.1,0-0.3,0-0.4,0h-10.9
			c-1.4,0-2.5,1.1-2.5,2.6l0.8,10.8c0,1.4,0.1,2.5,1.5,2.5h18.7c1.4,0,1.5-1.1,1.5-2.4L-53,378.6z M-55.6,392.8
			c0,0.5-0.4,0.8-0.8,0.8h-16.7c-0.5,0-0.8-0.4-0.8-0.9l-0.8-10.8c0-0.5,0.4-0.8,0.8-0.8H-63c0.1,0,0.3,0,0.4,0
			c1.2,0,2.1-0.6,2.3-1.7c0-0.1,0.1-0.2,0.1-0.4c0.1-0.3,0.2-0.9,0.3-1.2h4.4c0.5,0,0.8,0.4,0.8,0.8v0.1l0,0L-55.6,392.8"/>
		<path id="XMLID_225_" class="st2" d="M-74.8,377.8h10.9c0.5,0,0.8-0.4,0.8-0.8c0-0.5-0.4-0.8-0.8-0.8h-10.9
			c-0.5,0-0.8,0.4-0.8,0.8S-75.2,377.8-74.8,377.8L-74.8,377.8z"/>
	</g>
	<g id="XMLID_191_">
		<path id="XMLID_200_" class="st2" d="M-104.8,258.7h15.1l-0.6,10.3h-14.5v-2.6V258.7z M-87.5,256.6c-0.2-0.3-0.4-0.5-0.8-0.5
			h-16.9l-1.6-2.7c-0.2-0.3-0.6-0.5-1-0.5h-2c-0.6,0-1,0.5-1,1.1s0.4,1.3,1,1.3h1.4l1.6,2.2v7.6v5.3c0,0.8,0.4,1.3,1,1.3h15.5h1.7
			l0.4-6.6L-87.5,256.6 M-90.4,266.6L-90.4,266.6"/>
		<path id="XMLID_197_" class="st2" d="M-103.6,274.8L-103.6,274.8z M-105.8,274.8c0,1.2,1,2.1,2.1,2.1c1.2,0,2.1-1,2.1-2.1
			c0-1.2-1-2.1-2.1-2.1C-104.8,272.7-105.8,273.6-105.8,274.8"/>
		<path id="XMLID_192_" class="st2" d="M-91.6,274.8L-91.6,274.8z M-93.8,274.8c0,1.2,1,2.1,2.1,2.1c1.2,0,2.1-1,2.1-2.1
			c0-1.2-1-2.1-2.1-2.1C-92.8,272.7-93.8,273.6-93.8,274.8"/>
		<rect id="XMLID_208_" x="-102.4" y="257.3" class="st2" width="1.9" height="13.3"/>
		<rect id="XMLID_206_" x="-98.5" y="257.3" class="st2" width="1.9" height="13.3"/>
		<rect id="XMLID_207_" x="-94.5" y="257.3" class="st2" width="1.9" height="13.3"/>
	</g>
	<g id="XMLID_137_">
		<path id="XMLID_131_" class="st2" d="M115.6,345.3c-0.6-0.6-1.6-0.6-2.2,0l-11.5,11.6l-5.1-5.2c-0.6-0.6-1.6-0.6-2.2,0
			s-0.6,1.6,0,2.2l6.2,6.4l0,0l0,0c0.1,0.1,0.2,0.2,0.3,0.2s0.1,0.1,0.2,0.1c0.2,0.1,0.4,0.1,0.6,0.1s0.4,0,0.6-0.1
			c0.1,0,0.1-0.1,0.2-0.1c0.1-0.1,0.2-0.1,0.3-0.2l0,0l0,0l12.6-12.8C116.2,346.9,116.2,345.9,115.6,345.3L115.6,345.3z"/>
	</g>
	<g id="XMLID_86_">
		<path id="XMLID_90_" class="st2" d="M28.3,222.2c-0.4,0.5-0.3,1.3,0.2,1.7c0.2,0.2,0.5,0.3,0.7,0.3c0.4,0,0.7-0.2,1-0.5l5.3-6.9
			c1.4,0.8,3.1,1.3,4.8,1.3c5.4,0,9.8-4.4,9.8-9.8c0-5.4-4.4-9.8-9.8-9.8s-9.8,4.4-9.8,9.8c0,2.8,1.2,5.3,3,7.1L28.3,222.2
			L28.3,222.2z M47.7,208.2c0,4.1-3.3,7.4-7.4,7.4s-7.4-3.3-7.4-7.4c0-4.1,3.3-7.4,7.4-7.4S47.7,204.1,47.7,208.2L47.7,208.2z"/>
	</g>
	<g id="XMLID_446_">
		<path id="XMLID_236_" class="st2" d="M-183.1,314.9c-4.5,0-8.1,3.6-8.1,8.1s3.6,8.1,8.1,8.1s8.1-3.6,8.1-8.1
			C-175,318.5-178.6,314.9-183.1,314.9z M-183.1,328.5c-3,0-5.5-2.5-5.5-5.5s2.5-5.5,5.5-5.5s5.5,2.5,5.5,5.5
			C-177.6,326.1-180,328.5-183.1,328.5z"/>
		<path id="XMLID_238_" class="st2" d="M-169.3,343.3c0-7.8-6.3-14.2-14.2-14.2s-14.1,6.3-14.1,14.2h2c0-6.7,5.4-12.1,12.1-12.1
			c6.7,0,12.1,5.4,12.1,12.1"/>
	</g>
</g>
<g id="XMLID_1_" class="st0">
	<circle id="XMLID_2_" class="st1" cx="39.4" cy="209.4" r="29.4"/>
</g>
</svg>
