<?xml version="1.0" encoding="utf-8"?>
<!-- Generator: Adobe Illustrator 19.0.0, SVG Export Plug-In . SVG Version: 6.00 Build 0)  -->
<svg version="1.1" id="图层_1" xmlns="http://www.w3.org/2000/svg" xmlns:xlink="http://www.w3.org/1999/xlink" x="0px" y="0px"
	 viewBox="0 0 224.3 222.6" style="enable-background:new 0 0 224.3 222.6;" xml:space="preserve">
<style type="text/css">
	.st0{fill-rule:evenodd;clip-rule:evenodd;fill:#FFFFFF;}
	.st1{fill-rule:evenodd;clip-rule:evenodd;fill:#2977A8;}
	.st2{fill:#34373C;}
</style>
<circle id="XMLID_1_" class="st0" cx="112.6" cy="112.2" r="102.6"/>
<g id="XMLID_274_">
	<g id="XMLID_51_">
		<path id="XMLID_280_" class="st1" d="M112.9,70.3c-8.3,0-15,6.7-15,15c0,8.3,6.7,15,15,15c8.3,0,15-6.7,15-15
			C127.9,77,121.2,70.3,112.9,70.3z M112.9,95.4c-5.6,0-10.1-4.5-10.1-10.1c0-5.6,4.5-10.1,10.1-10.1c5.6,0,10.1,4.5,10.1,10.1
			C123,90.9,118.5,95.4,112.9,95.4z"/>
		<path id="XMLID_261_" class="st1" d="M138.3,122.6c0-14.4-11.7-26.1-26.1-26.1s-26.1,11.7-26.1,26.1l3.8,0
			c0-12.3,10-22.3,22.3-22.3c12.3,0,22.3,10,22.3,22.3"/>
	</g>
	<g id="XMLID_44_">
		<path id="XMLID_293_" class="st1" d="M142.9,76.9c-7.2,0-13.1,5.9-13.1,13.1c0,7.2,5.9,13.1,13.1,13.1c7.2,0,13.1-5.9,13.1-13.1
			C156,82.8,150.1,76.9,142.9,76.9z M142.9,98.8c-4.9,0-8.8-4-8.8-8.8c0-4.9,4-8.8,8.8-8.8c4.9,0,8.8,4,8.8,8.8
			C151.7,94.9,147.8,98.8,142.9,98.8z"/>
		<path id="XMLID_291_" class="st1" d="M165.1,122.6c0-12.6-10.2-22.8-22.8-22.8s-22.8,10.2-22.8,22.8l3.3,0
			c0-10.8,8.7-19.5,19.5-19.5c10.8,0,19.5,8.7,19.5,19.5"/>
	</g>
	<g id="XMLID_277_">
		<path id="XMLID_282_" class="st1" d="M82.4,76.9c-7.2,0-13.1,5.9-13.1,13.1c0,7.2,5.9,13.1,13.1,13.1c7.2,0,13.1-5.9,13.1-13.1
			C95.5,82.8,89.6,76.9,82.4,76.9z M82.4,98.8c-4.9,0-8.8-4-8.8-8.8c0-4.9,4-8.8,8.8-8.8c4.9,0,8.8,4,8.8,8.8
			C91.3,94.9,87.3,98.8,82.4,98.8z"/>
		<path id="XMLID_278_" class="st1" d="M104.6,122.6c0-12.6-10.2-22.8-22.8-22.8S59,110,59,122.6l3.3,0c0-10.8,8.7-19.5,19.5-19.5
			c10.8,0,19.5,8.7,19.5,19.5"/>
	</g>
</g>
<g id="XMLID_285_">
	<path id="XMLID_297_" class="st2" d="M96.2,154c-0.6,0-1.2,0-1.8,0c-0.7,0-1.3,0-2,0c-0.7,0-1.3,0-1.9,0.1c-0.6,0-1.1,0.1-1.5,0.1
		V152c0.9,0.1,2.1,0.1,3.5,0.2c1.4,0,3,0,4.7,0c0.3-0.6,0.5-1.4,0.8-2.1c0.2-0.8,0.4-1.5,0.6-2.2c0.4,0.2,0.9,0.3,1.4,0.4
		c0.5,0.1,1,0.2,1.4,0.3c0.3,0.1,0.5,0.1,0.5,0.2c0,0.1-0.1,0.2-0.4,0.3c-0.1,0.1-0.3,0.3-0.6,0.8c-0.3,0.4-0.7,1.2-1.2,2.3h4.4
		c0.5,0,1.1,0,1.8,0c0.7,0,1.4,0,2.1,0c0.7,0,1.4-0.1,2-0.1c0.6,0,1.2-0.1,1.7-0.1v2.2c-0.5,0-1-0.1-1.7-0.1c-0.7,0-1.3-0.1-2-0.1
		c-0.7,0-1.4,0-2.1,0s-1.3,0-1.8,0h-5.3c-0.4,0.7-0.9,1.5-1.5,2.3c-0.6,0.8-1.2,1.7-2,2.5h4.9c0-1,0-1.8-0.1-2.4
		c0-0.6-0.1-1-0.2-1.1c0.4,0.1,0.9,0.1,1.2,0.1c0.4,0,0.8,0,1.2,0c0.6,0,0.6,0.2,0.3,0.5c-0.2,0.1-0.3,0.4-0.3,0.9
		c-0.1,0.4-0.1,1.1-0.1,2.1c1.2,0,2.5,0,3.7,0c1.3,0,2.4,0,3.4-0.1c0,0.3-0.1,0.6-0.1,0.9c0,0.3,0,0.7,0,1.1v5.7
		c0,0.6-0.1,1-0.2,1.4c-0.1,0.4-0.3,0.6-0.6,0.9c-0.3,0.2-0.7,0.4-1.2,0.5c-0.5,0.1-1.2,0.3-2.1,0.4c-0.1-0.5-0.2-0.9-0.3-1.4
		c-0.1-0.4-0.4-0.9-0.6-1.4c0.7,0.1,1.2,0.1,1.6,0.1c0.4,0,0.7,0,0.9-0.1c0.2-0.1,0.3-0.2,0.4-0.4c0.1-0.2,0.1-0.4,0.1-0.7v-5.3
		h-4.9v7.9c0,0.4,0,0.9,0.1,1.5c0.1,0.5,0.1,1.1,0.2,1.6h-2.5c0.1-0.5,0.1-1,0.1-1.6c0-0.6,0.1-1.1,0.1-1.5v-7.9h-4.4v8.9h-2.2
		c0.1-0.6,0.1-1.2,0.2-1.6c0-0.5,0-0.9,0-1.4v-5.8c-0.6,0.7-1.3,1.4-1.9,2c-0.6,0.6-1.3,1.2-1.9,1.7c-0.3-0.3-0.7-0.6-1-0.8
		c-0.3-0.2-0.7-0.4-1.1-0.6c0.9-0.5,1.7-1.1,2.5-1.8c0.8-0.7,1.6-1.4,2.3-2.2c0.7-0.8,1.4-1.6,2.1-2.4
		C95.2,155.6,95.8,154.8,96.2,154z"/>
	<path id="XMLID_301_" class="st2" d="M125.2,155.5c-0.3,0.5-0.8,1.1-1.4,1.7c-0.6,0.6-1.4,1.2-2.3,1.9c-0.9,0.7-1.9,1.3-3,2
		c-1.1,0.7-2.3,1.3-3.6,1.9c-0.1-0.1-0.2-0.3-0.3-0.5c-0.1-0.2-0.3-0.4-0.5-0.6s-0.3-0.4-0.5-0.6c-0.2-0.2-0.4-0.3-0.5-0.5
		c1.3-0.2,2.5-0.6,3.7-1.2c1.2-0.6,2.3-1.3,3.3-2.1c1-0.8,1.9-1.6,2.7-2.5c0.8-0.9,1.3-1.7,1.7-2.6c0.4,0.3,0.8,0.5,1.3,0.7
		c0.5,0.2,0.8,0.3,1.1,0.4c0.2,0,0.3,0.1,0.3,0.2c0,0.1-0.1,0.2-0.4,0.3c0,0-0.1,0-0.1,0.1c-0.1,0-0.1,0.1-0.2,0.1
		c0.7,0.9,1.4,1.7,2.1,2.3c0.8,0.6,1.6,1.2,2.5,1.6c0.9,0.5,1.8,0.8,2.9,1.1c1,0.3,2.1,0.5,3.3,0.7c-0.3,0.4-0.6,0.8-0.8,1.3
		c-0.2,0.5-0.4,0.9-0.5,1.3c-1.2-0.4-2.3-0.8-3.3-1.3c-1.1-0.5-2.1-1-3-1.6c-0.9-0.6-1.8-1.3-2.5-2
		C126.3,157,125.7,156.2,125.2,155.5z M123.6,150.1c0.2,0,0.2,0.1,0.2,0.2c0,0.1-0.2,0.2-0.4,0.3c-0.1,0-0.3,0.1-0.5,0.3
		c-0.2,0.2-0.6,0.5-1,0.9c-0.5,0.4-1.1,1-1.8,1.7c-0.7,0.7-1.7,1.7-2.8,2.8c-0.1-0.2-0.3-0.3-0.4-0.5c-0.2-0.2-0.4-0.3-0.6-0.5
		c-0.2-0.2-0.4-0.3-0.6-0.4c-0.2-0.1-0.4-0.2-0.5-0.3c0.6-0.3,1.3-0.8,1.9-1.2c0.6-0.5,1.2-1,1.8-1.6c0.6-0.5,1-1.1,1.5-1.6
		c0.4-0.5,0.8-1,1-1.4c0.4,0.4,0.9,0.7,1.3,0.9S123.4,150.1,123.6,150.1z M120.5,171.6h-2.3c0.1-0.6,0.1-1.1,0.2-1.7
		c0-0.5,0.1-1.1,0.1-1.6v-6.8h13.3c0,0.3-0.1,0.5-0.1,0.9c0,0.3,0,0.6,0,1v4.9c0,0.6,0,1.1,0.1,1.5c0,0.4,0.1,0.9,0.2,1.4h-2.3v-1.5
		h-9.1V171.6z M129.6,163.2h-9.1v4.6h9.1V163.2z M133.4,155.4c-0.9-0.9-1.9-1.8-2.9-2.6c-1-0.8-2-1.5-3-2.1l1.4-1.6
		c0.6,0.4,1.2,0.8,1.7,1.1c0.5,0.4,1,0.7,1.5,1.1c0.5,0.4,1,0.7,1.5,1.1c0.5,0.4,1,0.8,1.6,1.2L133.4,155.4z"/>
</g>
</svg>
