<?xml version="1.0" encoding="utf-8"?>
<!-- Generator: Adobe Illustrator 19.0.0, SVG Export Plug-In . SVG Version: 6.00 Build 0)  -->
<svg version="1.1" id="图层_1" xmlns="http://www.w3.org/2000/svg" xmlns:xlink="http://www.w3.org/1999/xlink" x="0px" y="0px"
	 viewBox="0 0 364 188" style="enable-background:new 0 0 364 188;" xml:space="preserve">
<style type="text/css">
	.st0{fill-rule:evenodd;clip-rule:evenodd;fill:#2977A8;}
</style>
<g id="XMLID_274_">
	<g id="XMLID_51_">
		<path id="XMLID_280_" class="st0" d="M185.6,9.3c-26.7,0-48.3,21.6-48.3,48.3c0,26.7,21.6,48.3,48.3,48.3
			c26.7,0,48.3-21.6,48.3-48.3C233.9,30.9,212.3,9.3,185.6,9.3z M185.6,90.2c-18,0-32.6-14.6-32.6-32.6c0-18,14.6-32.6,32.6-32.6
			c18,0,32.6,14.6,32.6,32.6C218.3,75.6,203.7,90.2,185.6,90.2z"/>
		<path id="XMLID_261_" class="st0" d="M267.6,177.7c0-46.4-37.6-84.1-84.1-84.1s-84.1,37.6-84.1,84.1l12.1-0.1
			c0-39.7,32.2-71.9,71.9-71.9c39.7,0,71.9,32.2,71.9,71.9"/>
	</g>
	<g id="XMLID_44_">
		<path id="XMLID_293_" class="st0" d="M282.3,30.5c-23.3,0-42.2,18.9-42.2,42.2c0,23.3,18.9,42.2,42.2,42.2
			c23.3,0,42.2-18.9,42.2-42.2C324.5,49.4,305.6,30.5,282.3,30.5z M282.3,101.2c-15.8,0-28.5-12.8-28.5-28.5
			c0-15.8,12.8-28.5,28.5-28.5c15.8,0,28.5,12.8,28.5,28.5C310.9,88.5,298.1,101.2,282.3,101.2z"/>
		<path id="XMLID_291_" class="st0" d="M354,177.7c0-40.6-32.9-73.5-73.5-73.5S207,137.1,207,177.7l10.6-0.1
			c0-34.7,28.2-62.9,62.9-62.9c34.7,0,62.9,28.2,62.9,62.9"/>
	</g>
	<g id="XMLID_277_">
		<path id="XMLID_282_" class="st0" d="M87.3,30.5c-23.3,0-42.2,18.9-42.2,42.2c0,23.3,18.9,42.2,42.2,42.2
			c23.3,0,42.2-18.9,42.2-42.2C129.5,49.4,110.6,30.5,87.3,30.5z M87.3,101.2c-15.8,0-28.5-12.8-28.5-28.5
			c0-15.8,12.8-28.5,28.5-28.5c15.8,0,28.5,12.8,28.5,28.5C115.9,88.5,103.1,101.2,87.3,101.2z"/>
		<path id="XMLID_278_" class="st0" d="M159,177.7c0-40.6-32.9-73.5-73.5-73.5S12,137.1,12,177.7l10.6-0.1
			c0-34.7,28.2-62.9,62.9-62.9c34.7,0,62.9,28.2,62.9,62.9"/>
	</g>
</g>
</svg>
