<?xml version="1.0" encoding="utf-8"?>
<!-- Generator: Adobe Illustrator 19.0.0, SVG Export Plug-In . SVG Version: 6.00 Build 0)  -->
<svg version="1.1" id="图层_1" xmlns="http://www.w3.org/2000/svg" xmlns:xlink="http://www.w3.org/1999/xlink" x="0px" y="0px"
	 viewBox="0 0 224.3 222.6" style="enable-background:new 0 0 224.3 222.6;" xml:space="preserve">
<style type="text/css">
	.st0{fill-rule:evenodd;clip-rule:evenodd;fill:#FFFFFF;}
	.st1{fill-rule:evenodd;clip-rule:evenodd;fill:#2977A8;}
	.st2{fill:none;}
	.st3{font-family:'OpenSans';}
	.st4{font-size:20px;}
</style>
<circle id="XMLID_1_" class="st0" cx="112.6" cy="112.2" r="102.6"/>
<g id="XMLID_274_">
	<g id="XMLID_51_">
		<path id="XMLID_280_" class="st1" d="M112.9,70.3c-8.3,0-15,6.7-15,15c0,8.3,6.7,15,15,15c8.3,0,15-6.7,15-15
			C127.9,77,121.2,70.3,112.9,70.3z M112.9,95.4c-5.6,0-10.1-4.5-10.1-10.1c0-5.6,4.5-10.1,10.1-10.1c5.6,0,10.1,4.5,10.1,10.1
			C123,90.9,118.5,95.4,112.9,95.4z"/>
		<path id="XMLID_261_" class="st1" d="M138.3,122.6c0-14.4-11.7-26.1-26.1-26.1s-26.1,11.7-26.1,26.1l3.8,0
			c0-12.3,10-22.3,22.3-22.3c12.3,0,22.3,10,22.3,22.3"/>
	</g>
	<g id="XMLID_44_">
		<path id="XMLID_293_" class="st1" d="M142.9,76.9c-7.2,0-13.1,5.9-13.1,13.1c0,7.2,5.9,13.1,13.1,13.1c7.2,0,13.1-5.9,13.1-13.1
			C156,82.8,150.1,76.9,142.9,76.9z M142.9,98.8c-4.9,0-8.8-4-8.8-8.8c0-4.9,4-8.8,8.8-8.8c4.9,0,8.8,4,8.8,8.8
			C151.7,94.9,147.8,98.8,142.9,98.8z"/>
		<path id="XMLID_291_" class="st1" d="M165.1,122.6c0-12.6-10.2-22.8-22.8-22.8s-22.8,10.2-22.8,22.8l3.3,0
			c0-10.8,8.7-19.5,19.5-19.5c10.8,0,19.5,8.7,19.5,19.5"/>
	</g>
	<g id="XMLID_277_">
		<path id="XMLID_282_" class="st1" d="M82.4,76.9c-7.2,0-13.1,5.9-13.1,13.1c0,7.2,5.9,13.1,13.1,13.1c7.2,0,13.1-5.9,13.1-13.1
			C95.5,82.8,89.6,76.9,82.4,76.9z M82.4,98.8c-4.9,0-8.8-4-8.8-8.8c0-4.9,4-8.8,8.8-8.8c4.9,0,8.8,4,8.8,8.8
			C91.3,94.9,87.3,98.8,82.4,98.8z"/>
		<path id="XMLID_278_" class="st1" d="M104.6,122.6c0-12.6-10.2-22.8-22.8-22.8S59,110,59,122.6l3.3,0c0-10.8,8.7-19.5,19.5-19.5
			c10.8,0,19.5,8.7,19.5,19.5"/>
	</g>
</g>
<rect id="XMLID_74_" x="84.4" y="151.8" class="st2" width="253" height="126"/>
<text id="XMLID_73_" transform="matrix(1 0 0 1 84.406 168.9626)" class="st3 st4">Boogu</text>
</svg>
