<?xml version="1.0" encoding="utf-8"?>
<!-- Generator: Adobe Illustrator 19.0.0, SVG Export Plug-In . SVG Version: 6.00 Build 0)  -->
<svg version="1.1" id="图层_1" xmlns="http://www.w3.org/2000/svg" xmlns:xlink="http://www.w3.org/1999/xlink" x="0px" y="0px"
	 viewBox="0 0 163.2 152.4" style="enable-background:new 0 0 163.2 152.4;" xml:space="preserve">
<style type="text/css">
	.st0{fill:#2977A8;}
</style>
<g id="XMLID_324_">
	<rect id="XMLID_310_" x="20.7" y="8.3" class="st0" width="7.2" height="51.9"/>
	<rect id="XMLID_330_" x="20.7" y="117.6" class="st0" width="7.2" height="26"/>
	<path id="XMLID_360_" class="st0" d="M10.2,65.7v45.5h28.2V65.7H10.2z M33.2,106.8H15.3v-6h17.9V106.8z M33.2,97.2H15.3v-6h17.9
		V97.2z M33.2,86.4H15.3v-6h17.9V86.4z M33.2,77H15.3v-6h17.9V77z"/>
	<rect id="XMLID_358_" x="60" y="8.3" class="st0" width="7.2" height="67.3"/>
	<rect id="XMLID_353_" x="60" y="133" class="st0" width="7.2" height="10.7"/>
	<path id="XMLID_344_" class="st0" d="M49.5,81.1v45.5h28.2V81.1H49.5z M72.6,122.2H54.7v-6h17.9V122.2z M72.6,112.6H54.7v-6h17.9
		V112.6z M72.6,101.8H54.7v-6h17.9V101.8z M72.6,92.4H54.7v-6h17.9V92.4z"/>
	<rect id="XMLID_395_" x="99.4" y="8.3" class="st0" width="7.2" height="20.2"/>
	<rect id="XMLID_394_" x="99.4" y="86" class="st0" width="7.2" height="57.7"/>
	<path id="XMLID_379_" class="st0" d="M88.9,33.9v45.5h28.2V33.9H88.9z M111.9,75H94.1v-6h17.9V75z M111.9,65.6H94.1v-6h17.9V65.6z
		 M111.9,54.8H94.1v-6h17.9V54.8z M111.9,45.2H94.1v-6h17.9V45.2z"/>
	<rect id="XMLID_403_" x="138.7" y="8.3" class="st0" width="7.2" height="67.3"/>
	<rect id="XMLID_402_" x="138.7" y="133" class="st0" width="7.2" height="10.7"/>
	<path id="XMLID_385_" class="st0" d="M128.2,81.1v45.5h28.2V81.1H128.2z M151.3,122.2h-17.9v-6h17.9V122.2z M151.3,112.6h-17.9v-6
		h17.9V112.6z M151.3,101.8h-17.9v-6h17.9V101.8z M151.3,92.4h-17.9v-6h17.9V92.4z"/>
</g>
</svg>
