<?xml version="1.0" encoding="utf-8"?>
<!-- Generator: Adobe Illustrator 19.0.0, SVG Export Plug-In . SVG Version: 6.00 Build 0)  -->
<svg version="1.1" id="图层_1" xmlns="http://www.w3.org/2000/svg" xmlns:xlink="http://www.w3.org/1999/xlink" x="0px" y="0px"
	 viewBox="0 0 224.3 222.6" style="enable-background:new 0 0 224.3 222.6;" xml:space="preserve">
<style type="text/css">
	.st0{fill-rule:evenodd;clip-rule:evenodd;fill:#FFFFFF;}
	.st1{fill:none;}
	.st2{font-family:'OpenSans';}
	.st3{font-size:20px;}
	.st4{fill:#2977A8;}
</style>
<g id="XMLID_73_">
	<g id="XMLID_72_">
		<circle id="XMLID_51_" class="st0" cx="112.6" cy="112.2" r="102.6"/>
		<rect id="XMLID_44_" x="55.1" y="151.8" class="st1" width="253" height="126"/>
		<text id="XMLID_1_" transform="matrix(1 0 0 1 55.1353 168.9626)" class="st2 st3">E-commerce</text>
		<g id="XMLID_324_">
			<rect id="XMLID_310_" x="78.9" y="59.8" class="st4" width="4" height="29.2"/>
			<rect id="XMLID_330_" x="78.9" y="121.2" class="st4" width="4" height="14.6"/>
			<path id="XMLID_360_" class="st4" d="M73,92v25.5h15.9V92H73z M85.9,115h-10v-3.3h10V115z M85.9,109.7h-10v-3.3h10V109.7z
				 M85.9,103.7h-10v-3.3h10V103.7z M85.9,98.3h-10V95h10V98.3z"/>
			<rect id="XMLID_358_" x="101" y="59.8" class="st4" width="4" height="37.8"/>
			<rect id="XMLID_353_" x="101" y="129.8" class="st4" width="4" height="6"/>
			<path id="XMLID_344_" class="st4" d="M95.1,100.6v25.5H111v-25.5H95.1z M108,123.7H98v-3.3h10V123.7z M108,118.4H98V115h10V118.4
				z M108,112.3H98v-3.3h10V112.3z M108,107H98v-3.3h10V107z"/>
			<rect id="XMLID_395_" x="123.1" y="59.8" class="st4" width="4" height="11.3"/>
			<rect id="XMLID_394_" x="123.1" y="103.3" class="st4" width="4" height="32.4"/>
			<path id="XMLID_379_" class="st4" d="M117.2,74.1v25.5H133V74.1H117.2z M130.1,97.2h-10v-3.3h10V97.2z M130.1,91.9h-10v-3.3h10
				V91.9z M130.1,85.8h-10v-3.3h10V85.8z M130.1,80.5h-10v-3.3h10V80.5z"/>
			<rect id="XMLID_403_" x="145.2" y="59.8" class="st4" width="4" height="37.8"/>
			<rect id="XMLID_402_" x="145.2" y="129.8" class="st4" width="4" height="6"/>
			<path id="XMLID_385_" class="st4" d="M139.3,100.6v25.5h15.9v-25.5H139.3z M152.2,123.7h-10v-3.3h10V123.7z M152.2,118.4h-10V115
				h10V118.4z M152.2,112.3h-10v-3.3h10V112.3z M152.2,107h-10v-3.3h10V107z"/>
		</g>
	</g>
</g>
</svg>
