<?xml version="1.0" encoding="utf-8"?>
<!-- Generator: Adobe Illustrator 19.0.0, SVG Export Plug-In . SVG Version: 6.00 Build 0)  -->
<svg version="1.1" id="图层_1" xmlns="http://www.w3.org/2000/svg" xmlns:xlink="http://www.w3.org/1999/xlink" x="0px" y="0px"
	 viewBox="0 0 152.6 140.6" style="enable-background:new 0 0 152.6 140.6;" xml:space="preserve">
<style type="text/css">
	.st0{fill:#2977A8;}
</style>
<g id="XMLID_186_">
	<path id="XMLID_195_" class="st0" d="M36.5,113.5c5.8,5,12.5,9.1,20.1,11.9c34.1,13,72.2-3.3,87.1-36.4
		c-18.2,22.8-49.5,32.4-78.1,21.6c-7.4-2.8-14-6.8-19.8-11.7L36.5,113.5z"/>
	<polygon id="XMLID_193_" class="st0" points="8.6,90 37.2,90.5 65.7,90.9 53.3,114 40.9,137.1 24.7,113.5 	"/>
	<path id="XMLID_262_" class="st0" d="M115.8,26.6c-5.8-5-12.5-9.1-20.1-11.9C61.6,1.7,23.6,17.9,8.6,51
		c18.2-22.8,49.5-32.4,78.1-21.6c7.4,2.8,14,6.8,19.8,11.7L115.8,26.6z"/>
	<polygon id="XMLID_256_" class="st0" points="143.8,50.1 115.2,49.7 86.6,49.2 99.1,26.1 111.5,3 127.6,26.6 	"/>
</g>
</svg>
