<?xml version="1.0" encoding="utf-8"?>
<!-- Generator: Adobe Illustrator 19.0.0, SVG Export Plug-In . SVG Version: 6.00 Build 0)  -->
<svg version="1.1" id="图层_1" xmlns="http://www.w3.org/2000/svg" xmlns:xlink="http://www.w3.org/1999/xlink" x="0px" y="0px"
	 viewBox="0 0 224.3 222.6" style="enable-background:new 0 0 224.3 222.6;" xml:space="preserve">
<style type="text/css">
	.st0{fill-rule:evenodd;clip-rule:evenodd;fill:#FFFFFF;}
	.st1{fill:#2977A8;}
	.st2{fill:none;}
	.st3{font-family:'OpenSans';}
	.st4{font-size:20px;}
</style>
<g id="XMLID_72_">
	<circle id="XMLID_71_" class="st0" cx="112.6" cy="112.2" r="102.6"/>
	<g id="XMLID_186_">
		<path id="XMLID_195_" class="st1" d="M92.6,117.3c2.9,2.5,6.3,4.6,10.1,6c17.2,6.6,36.4-1.6,44-18.4c-9.2,11.5-25,16.4-39.4,10.9
			c-3.7-1.4-7.1-3.4-10-5.9L92.6,117.3z"/>
		<polygon id="XMLID_193_" class="st1" points="78.5,105.5 92.9,105.7 107.3,105.9 101,117.6 94.8,129.3 86.6,117.4 		"/>
		<path id="XMLID_262_" class="st1" d="M132.6,73.5c-2.9-2.5-6.3-4.6-10.1-6c-17.2-6.6-36.4,1.6-44,18.4c9.2-11.5,25-16.4,39.4-10.9
			c3.7,1.4,7.1,3.4,10,5.9L132.6,73.5z"/>
		<polygon id="XMLID_256_" class="st1" points="146.7,85.4 132.3,85.1 117.9,84.9 124.1,73.2 130.4,61.6 138.6,73.5 		"/>
	</g>
	<rect id="XMLID_70_" x="90.7" y="151.8" class="st2" width="253" height="126"/>
	<text id="XMLID_69_" transform="matrix(1 0 0 1 90.7059 168.9626)" class="st3 st4">IMSG</text>
</g>
</svg>
